<svg width="408" height="406" viewBox="0 0 408 406" fill="none" xmlns="http://www.w3.org/2000/svg">
<mask id="path-1-inside-1" fill="white">
<path fill-rule="evenodd" clip-rule="evenodd" d="M408 0V200H338.572C340.452 195.888 341.5 191.317 341.5 186.5C341.5 168.551 326.949 154 309 154C291.051 154 276.5 168.551 276.5 186.5C276.5 191.317 277.548 195.888 279.428 200L208 200L208 116.216C203.361 121.011 196.804 124 189.537 124C175.474 124 164.074 112.807 164.074 99C164.074 85.1929 175.474 74 189.537 74C196.804 74 203.361 76.9892 208 81.7836L208 0L408 0Z"/>
</mask>
<path fill-rule="evenodd" clip-rule="evenodd" d="M408 0V200H338.572C340.452 195.888 341.5 191.317 341.5 186.5C341.5 168.551 326.949 154 309 154C291.051 154 276.5 168.551 276.5 186.5C276.5 191.317 277.548 195.888 279.428 200L208 200L208 116.216C203.361 121.011 196.804 124 189.537 124C175.474 124 164.074 112.807 164.074 99C164.074 85.1929 175.474 74 189.537 74C196.804 74 203.361 76.9892 208 81.7836L208 0L408 0Z" fill="white"/>
<path d="M408 200V203H411V200H408ZM408 0L411 0V-3L408 -3V0ZM338.572 200L335.844 198.752L333.902 203H338.572V200ZM279.428 200V203H284.098L282.156 198.752L279.428 200ZM208 200H205V203H208V200ZM208 116.216L211 116.216V108.802L205.844 114.13L208 116.216ZM208 81.7836L205.844 83.8698L211 89.198V81.7836L208 81.7836ZM208 0V-3L205 -3V0L208 0ZM411 200V0L405 0V200H411ZM338.572 203H408V197H338.572L338.572 203ZM338.5 186.5C338.5 190.877 337.548 195.025 335.844 198.752L341.301 201.248C343.356 196.752 344.5 191.756 344.5 186.5H338.5ZM309 157C325.292 157 338.5 170.208 338.5 186.5H344.5C344.5 166.894 328.606 151 309 151V157ZM279.5 186.5C279.5 170.208 292.708 157 309 157V151C289.394 151 273.5 166.894 273.5 186.5L279.5 186.5ZM282.156 198.752C280.452 195.025 279.5 190.877 279.5 186.5L273.5 186.5C273.5 191.756 274.644 196.752 276.699 201.248L282.156 198.752ZM208 203L279.428 203V197L208 197V203ZM205 116.216L205 200H211L211 116.216L205 116.216ZM189.537 127C197.642 127 204.969 123.663 210.156 118.303L205.844 114.13C201.753 118.358 195.967 121 189.537 121V127ZM161.074 99C161.074 114.516 173.87 127 189.537 127V121C177.079 121 167.074 111.099 167.074 99H161.074ZM189.537 71C173.87 71 161.074 83.4844 161.074 99H167.074C167.074 86.9014 177.079 77 189.537 77V71ZM210.156 79.6974C204.969 74.3368 197.642 71 189.537 71V77C195.967 77 201.753 79.6416 205.844 83.8698L210.156 79.6974ZM205 0L205 81.7836L211 81.7836L211 0L205 0ZM408 -3L208 -3V3L408 3V-3Z" fill="#394E66" mask="url(#path-1-inside-1)"/>
<path fill-rule="evenodd" clip-rule="evenodd" d="M408 406L208 406L208 335.094C212.365 337.274 217.289 338.5 222.5 338.5C240.449 338.5 255 323.949 255 306C255 288.051 240.449 273.5 222.5 273.5C217.289 273.5 212.365 274.726 208 276.906L208 206L291.651 206C286.934 201.453 284 195.069 284 188C284 174.193 295.193 163 309 163C322.807 163 334 174.193 334 188C334 195.069 331.066 201.453 326.349 206L408 206L408 406Z" fill="#394E66"/>
<mask id="path-4-inside-2" fill="white">
<path fill-rule="evenodd" clip-rule="evenodd" d="M2 406L2 206H70.4278C68.5478 210.112 67.5 214.683 67.5 219.5C67.5 237.449 82.0507 252 100 252C117.949 252 132.5 237.449 132.5 219.5C132.5 214.683 131.452 210.112 129.572 206L202 206L202 288.651C206.547 283.934 212.931 281 220 281C233.807 281 245 292.193 245 306C245 319.807 233.807 331 220 331C212.931 331 206.547 328.066 202 323.349L202 406H2Z"/>
</mask>
<path fill-rule="evenodd" clip-rule="evenodd" d="M2 406L2 206H70.4278C68.5478 210.112 67.5 214.683 67.5 219.5C67.5 237.449 82.0507 252 100 252C117.949 252 132.5 237.449 132.5 219.5C132.5 214.683 131.452 210.112 129.572 206L202 206L202 288.651C206.547 283.934 212.931 281 220 281C233.807 281 245 292.193 245 306C245 319.807 233.807 331 220 331C212.931 331 206.547 328.066 202 323.349L202 406H2Z" fill="white"/>
<path d="M2 206L2 203H-1L-1 206H2ZM2 406H-1L-1 409H2L2 406ZM70.4278 206L73.1561 207.248L75.0983 203H70.4278V206ZM129.572 206V203H124.902L126.844 207.248L129.572 206ZM202 206H205V203H202V206ZM202 288.651L199 288.651V296.085L204.16 290.733L202 288.651ZM202 323.349L204.16 321.267L199 315.915V323.349L202 323.349ZM202 406V409H205V406H202ZM-1 206L-1 406H5L5 206H-1ZM70.4278 203H2L2 209H70.4278L70.4278 203ZM70.5 219.5C70.5 215.123 71.4515 210.975 73.1561 207.248L67.6995 204.752C65.644 209.248 64.5 214.244 64.5 219.5H70.5ZM100 249C83.7076 249 70.5 235.792 70.5 219.5H64.5C64.5 239.106 80.3939 255 100 255V249ZM129.5 219.5C129.5 235.792 116.292 249 100 249V255C119.606 255 135.5 239.106 135.5 219.5L129.5 219.5ZM126.844 207.248C128.548 210.975 129.5 215.123 129.5 219.5L135.5 219.5C135.5 214.244 134.356 209.248 132.301 204.752L126.844 207.248ZM202 203L129.572 203L129.572 209L202 209V203ZM205 288.651L205 206H199L199 288.651L205 288.651ZM220 278C212.083 278 204.929 281.29 199.84 286.568L204.16 290.733C208.165 286.578 213.779 284 220 284V278ZM248 306C248 290.536 235.464 278 220 278V284C232.15 284 242 293.85 242 306H248ZM220 334C235.464 334 248 321.464 248 306H242C242 318.15 232.15 328 220 328V334ZM199.84 325.432C204.929 330.71 212.083 334 220 334V328C213.779 328 208.165 325.422 204.16 321.267L199.84 325.432ZM205 406L205 323.349L199 323.349L199 406H205ZM2 409H202V403H2L2 409Z" fill="#394E66" mask="url(#path-4-inside-2)"/>
<path fill-rule="evenodd" clip-rule="evenodd" d="M0 0L200 0V69.4278C195.888 67.5478 191.317 66.5 186.5 66.5C168.551 66.5 154 81.0507 154 99C154 116.949 168.551 131.5 186.5 131.5C191.317 131.5 195.888 130.452 200 128.572L200 200H117.349C122.066 204.547 125 210.931 125 218C125 231.807 113.807 243 100 243C86.1929 243 75 231.807 75 218C75 210.931 77.934 204.547 82.6506 200H0L0 0Z" fill="#394E66"/>
<circle cx="308" cy="100" r="38.5" stroke="#FFB800" stroke-width="3"/>
<path d="M326.5 100C326.5 110.863 324.295 120.624 320.8 127.613C317.261 134.693 312.649 138.5 308 138.5C303.351 138.5 298.739 134.693 295.2 127.613C291.705 120.624 289.5 110.863 289.5 100C289.5 89.1367 291.705 79.3759 295.2 72.3865C298.739 65.3074 303.351 61.5 308 61.5C312.649 61.5 317.261 65.3074 320.8 72.3865C324.295 79.3759 326.5 89.1367 326.5 100Z" stroke="#FFB800" stroke-width="3"/>
<line x1="268" y1="98.5" x2="348" y2="98.5" stroke="#FFB800" stroke-width="3"/>
<line x1="306.5" y1="140" x2="306.5" y2="60" stroke="#FFB800" stroke-width="3"/>
<path d="M326.468 305.646C326.468 315.932 324.477 325.196 321.302 331.85C318.092 338.579 313.853 342.314 309.499 342.314C305.144 342.314 300.905 338.579 297.695 331.85C294.521 325.196 292.529 315.932 292.529 305.646C292.529 295.359 294.521 286.096 297.695 279.441C300.905 272.712 305.144 268.978 309.499 268.978C313.853 268.978 318.092 272.712 321.302 279.441C324.477 286.096 326.468 295.359 326.468 305.646Z" stroke="#FF00D6" stroke-width="2"/>
<path d="M309.499 287.812C319.294 287.812 328.113 289.895 334.447 293.214C340.827 296.558 344.437 301.003 344.437 305.646C344.437 310.288 340.827 314.734 334.447 318.078C328.113 321.397 319.294 323.48 309.499 323.48C299.703 323.48 290.884 321.397 284.551 318.078C278.17 314.734 274.56 310.288 274.56 305.646C274.56 301.003 278.17 296.558 284.551 293.214C290.884 289.895 299.703 287.812 309.499 287.812Z" stroke="#FF00D6" stroke-width="2"/>
<path d="M297.866 293.453C304.799 286.186 312.449 281.117 319.175 278.767C325.963 276.396 331.497 276.88 334.604 280.136C337.71 283.391 338.172 289.192 335.909 296.307C333.667 303.356 328.831 311.374 321.898 318.641C314.964 325.908 307.314 330.977 300.588 333.327C293.8 335.699 288.266 335.215 285.16 331.959C282.053 328.703 281.592 322.902 283.854 315.788C286.096 308.738 290.932 300.72 297.866 293.453Z" stroke="#FF00D6" stroke-width="2"/>
<path d="M294.102 318.547C287.169 311.28 282.333 303.262 280.091 296.212C277.828 289.098 278.29 283.297 281.396 280.041C284.503 276.785 290.037 276.301 296.825 278.673C303.551 281.023 311.201 286.092 318.134 293.359C325.068 300.626 329.904 308.644 332.146 315.693C334.408 322.808 333.947 328.609 330.84 331.864C327.734 335.12 322.2 335.604 315.412 333.233C308.686 330.883 301.036 325.814 294.102 318.547Z" stroke="#FF00D6" stroke-width="2"/>
<ellipse cx="309.499" cy="305.646" rx="4.49228" ry="4.70848" fill="#FF00D6"/>
<path d="M106.481 99.5158C97.3304 108.683 88.6803 116.605 82.0948 122.003C78.7996 124.704 76.0338 126.762 73.9867 128.028C72.9596 128.664 72.137 129.085 71.5318 129.293C71.228 129.398 71.0072 129.439 70.8584 129.44C70.7593 129.441 70.7179 129.424 70.7056 129.418C70.699 129.405 70.6828 129.364 70.6836 129.265C70.6847 129.115 70.7254 128.894 70.8298 128.59C71.0376 127.984 71.458 127.16 72.0923 126.131C73.3565 124.08 75.4114 121.309 78.1074 118.008C83.4956 111.411 91.4037 102.745 100.554 93.5786C109.705 84.4118 118.355 76.4895 124.941 71.0918C128.236 68.391 131.002 66.3324 133.049 65.066C134.076 64.4306 134.898 64.0094 135.503 63.8012C135.807 63.6967 136.028 63.6559 136.177 63.6547C136.276 63.654 136.317 63.6702 136.33 63.6768C136.336 63.6891 136.353 63.7306 136.352 63.8299C136.351 63.979 136.31 64.2001 136.206 64.5045C135.998 65.1107 135.577 65.9349 134.943 66.9637C133.679 69.0144 131.624 71.7852 128.928 75.0862C123.54 81.6835 115.632 90.349 106.481 99.5158ZM70.7014 129.415C70.7015 129.415 70.702 129.415 70.703 129.416L70.7014 129.415ZM70.7071 129.42C70.7079 129.421 70.7083 129.422 70.7083 129.422L70.7071 129.42ZM136.334 63.6795C136.334 63.6796 136.333 63.6792 136.332 63.6783L136.334 63.6795ZM136.328 63.6743C136.327 63.6732 136.327 63.6726 136.327 63.6726L136.328 63.6743Z" stroke="white"/>
<path d="M80.2134 124.887C78.0526 127.052 75.7086 128.518 73.722 129.181C71.6403 129.876 70.4229 129.568 69.8957 129.04C69.3685 128.512 69.0609 127.292 69.7548 125.207C70.417 123.217 71.8806 120.869 74.0414 118.704C76.2022 116.539 78.5462 115.073 80.5328 114.41C82.6145 113.715 83.832 114.023 84.3591 114.551C84.8863 115.079 85.194 116.299 84.5001 118.384C83.8378 120.374 82.3742 122.722 80.2134 124.887Z" stroke="white" stroke-width="3"/>
<path d="M68.4141 134.211C67.1103 135.517 65.7415 136.444 64.6153 136.909C64.05 137.142 63.5932 137.239 63.2632 137.241C62.9381 137.244 62.8194 137.158 62.7793 137.118C62.7392 137.078 62.6536 136.959 62.656 136.633C62.6585 136.303 62.7553 135.845 62.9881 135.279C63.4518 134.15 64.3775 132.779 65.6814 131.473C66.9852 130.167 68.3539 129.24 69.4802 128.775C70.0455 128.542 70.5023 128.445 70.8323 128.442C71.1574 128.44 71.276 128.526 71.3161 128.566C71.3562 128.606 71.4419 128.725 71.4394 129.051C71.4369 129.381 71.3401 129.839 71.1074 130.405C70.6436 131.533 69.7179 132.905 68.4141 134.211Z" stroke="white" stroke-width="2"/>
<path d="M96.9583 106.421C87.8047 115.591 79.289 123.657 72.9221 129.285C69.7371 132.101 67.0976 134.299 65.1882 135.719C64.2307 136.431 63.4729 136.936 62.9298 137.225C62.8103 137.289 62.7063 137.339 62.6169 137.378C62.656 137.289 62.7064 137.185 62.7699 137.065C63.0589 136.521 63.5625 135.762 64.2734 134.803C65.6912 132.89 67.8855 130.246 70.6957 127.055C76.3136 120.677 84.3655 112.146 93.519 102.976C102.673 93.8062 111.188 85.74 117.555 80.1122C120.74 77.2969 123.38 75.0987 125.289 73.6784C126.247 72.9662 127.004 72.4618 127.547 72.1723C127.667 72.1086 127.771 72.0581 127.86 72.019C127.821 72.1085 127.771 72.2127 127.707 72.3324C127.418 72.8765 126.915 73.6356 126.204 74.5949C124.786 76.5076 122.592 79.1518 119.782 82.3425C114.164 88.7208 106.112 97.2516 96.9583 106.421ZM62.2624 137.489C62.2627 137.489 62.267 137.489 62.2744 137.489C62.2658 137.49 62.2621 137.49 62.2624 137.489ZM62.5062 137.722C62.5068 137.729 62.5064 137.733 62.5061 137.734C62.5058 137.734 62.5055 137.73 62.5062 137.722ZM128.215 71.908C128.215 71.9083 128.21 71.9087 128.203 71.9081C128.211 71.9073 128.215 71.9076 128.215 71.908ZM127.971 71.6759C127.97 71.6684 127.971 71.6641 127.971 71.6638C127.972 71.6635 127.972 71.6673 127.971 71.6759Z" stroke="#F0F0F0"/>
<path fill-rule="evenodd" clip-rule="evenodd" d="M117.962 340.275C113.653 342.032 108.94 343 104 343C99.0313 343 94.2914 342.021 89.9628 340.244L85.9216 332.753L92.0406 332.032L82.8612 327.08L77.9093 317.9L77.188 324.02L69.7414 320.002C67.9741 315.683 67 310.955 67 306C67 301.038 67.9768 296.304 69.7485 291.98L77.2174 287.951L77.9388 294.07L82.8906 284.891L92.0701 279.939L85.9511 279.217L89.9802 271.748C94.3041 269.977 99.038 269 104 269C108.955 269 113.683 269.974 118.002 271.741L122.02 279.188L115.9 279.909L125.08 284.861L130.032 294.041L130.753 287.922L138.244 291.963C140.021 296.291 141 301.031 141 306C141 310.94 140.032 315.653 138.275 319.962L130.753 324.02L130.032 317.9L125.08 327.08L115.9 332.032L122.02 332.753L117.962 340.275ZM137.647 290.588C136.082 287.176 134.013 284.044 131.535 281.285L131.199 284.14L137.647 290.588ZM128.65 278.406C125.907 275.955 122.797 273.906 119.412 272.353L125.801 278.742L128.65 278.406ZM88.5882 272.353C85.1897 273.912 82.0681 275.971 79.3176 278.435L82.1693 278.772L88.5882 272.353ZM76.4354 281.318C73.9708 284.068 71.9119 287.19 70.3527 290.588L76.7716 284.169L76.4354 281.318ZM82.1398 333.199L88.5882 339.647C85.1763 338.082 82.0436 336.013 79.2852 333.535L82.1398 333.199ZM76.7422 327.801L76.4064 330.65C73.9546 327.907 71.9058 324.797 70.3527 321.412L76.7422 327.801ZM119.303 339.697C122.755 338.127 125.922 336.043 128.708 333.542L125.801 333.199L119.303 339.697ZM131.542 330.708C134.043 327.922 136.127 324.755 137.697 321.303L131.199 327.801L131.542 330.708ZM144 306C144 328.091 126.091 346 104 346C81.9086 346 64 328.091 64 306C64 283.909 81.9086 266 104 266C126.091 266 144 283.909 144 306ZM104 286L108.49 299.82H123.021L111.265 308.361L115.756 322.18L104 313.639L92.2443 322.18L96.7346 308.361L84.9789 299.82H99.5097L104 286Z" fill="#1C39CE"/>
</svg>
